# xmcd
#
# Track frame offsets:
#	150
#	12281
#	24615
#	36619
#	51075
#	66871
#	79883
#	93406
#	105718
#	117513
#	130896
#	149641
#	166185
#	176188
#	189044
#	202230
#	214692
#	232361
#	245056
#	258011
#
# Disc length: 3636 seconds
# Revision: 0
# Processed by: cddbd v1.5.2PL0 Copyright (c) Steve Scherf et al.
# Submitted via: dBpowerAMP V12.0
#
DISCID=2f0e3214
DTITLE=Various Artist - American Heartland Legends of Country
DYEAR=2014
DGENRE=Country
TTITLE0=Dolly Parton - Jolene
TTITLE1=Johnny Cash - I Walk The Line
TTITLE2=Tammy Wynette - Stand By Your Man
TTITLE3=Glen Campbell - Rhinestone Cowboy
TTITLE4=Willie Nelson - Always On My Mind
TTITLE5=Lynn Anderson - Rose Garden
TTITLE6=John Denver - Annie's Song
TTITLE7=Patsy Cline - Crazy
TTITLE8=Skeeter Davis - The End of the World
TTITLE9=Billy Swan - I Can Help
TTITLE10=Dooly Parton and Kenny Rogers - Islands in the Stream
TTITLE11=Brooks and Dunn - Cowgirls Don't Cry
TTITLE12=George Hamiliton IV - Abilene
TTITLE13=Jim Reeves - Distand Drums
TTITLE14=Charlie Rich - Behind Closed Doors
TTITLE15=Roy Orbison - Crying
TTITLE16=Elvis Presley - Tomorrow Never Comes
TTITLE17=Charley Pride - Crystal Chandeliers
TTITLE18=Tanya Tucker - Delta Dawn
TTITLE19=Rosanne Cash - Seven Year Ache
EXTD=
EXTT0=
EXTT1=
EXTT2=
EXTT3=
EXTT4=
EXTT5=
EXTT6=
EXTT7=
EXTT8=
EXTT9=
EXTT10=
EXTT11=
EXTT12=
EXTT13=
EXTT14=
EXTT15=
EXTT16=
EXTT17=
EXTT18=
EXTT19=
PLAYORDER=
